<svg width="50" height="50" viewBox="0 0 50 50" fill="none" xmlns="http://www.w3.org/2000/svg">
    <path
        d="M25 0C11.1765 0 0 11.1765 0 25C0 38.8235 11.1765 50 25 50C38.8235 50 50 38.8235 50 25C50 11.1765 38.8235 0 25 0ZM16.3529 21.7647H12.4118V24.2941H15.8235V26.0588H12.4118V29.9412H10.0588V19.9412H16.7059L16.3529 21.7647ZM20.1176 30H17.8235V20H20.1176V30ZM28.6471 29.7059C28.0588 29.9412 27.3529 30.1176 26.5294 30.1176C25.7647 30.1176 25.1176 30 24.4706 29.7059C23.8824 29.4706 23.3529 29.1176 22.9412 28.6471C22.5294 28.1765 22.1765 27.6471 22 27C21.7647 26.3529 21.6471 25.7059 21.6471 24.9412C21.6471 24.4118 21.7059 23.8824 21.8235 23.4118C21.9412 22.9412 22.1176 22.5294 22.3529 22.1176C22.5882 21.7647 22.8824 21.4118 23.1765 21.1176C23.4706 20.8235 23.8235 20.5882 24.1765 20.4118C24.5294 20.2353 24.9412 20.0588 25.3529 20C25.7647 19.8824 26.1765 19.8824 26.5882 19.8824C27.1765 19.8824 27.7647 20 28.3529 20.1765C28.9412 20.3529 29.4706 20.7059 29.9412 21.1176L28.8235 22.5294C28.4706 22.2941 28.1176 22.1176 27.7059 22C27.3529 21.8824 26.9412 21.8235 26.5882 21.8235C26.2353 21.8235 25.8824 21.8824 25.5882 22C25.2941 22.1176 25 22.2941 24.7647 22.5882C24.5294 22.8235 24.3529 23.1765 24.1765 23.5882C24 24 23.9412 24.4706 23.9412 25C23.9412 25.5294 24 26 24.1765 26.4118C24.3529 26.8235 24.5294 27.1765 24.7647 27.4118C25 27.7059 25.2941 27.8824 25.6471 28C26 28.1176 26.2941 28.1765 26.7059 28.1765C27.0588 28.1765 27.4706 28.1176 27.8235 28C28.1765 27.8824 28.5294 27.6471 28.8824 27.3529L30.1176 28.5294C29.7647 29.0588 29.2941 29.4706 28.6471 29.7059ZM39.9412 30H37.5882V25.7647H33.5294V30H31.1765V20H33.5294V24.1765H37.5882V20H39.9412V30Z"
        fill="white" />
</svg>